<svg xmlns="http://www.w3.org/2000/svg" xml:space="preserve" width="200px" height="269px" x="0px" y="0px" viewBox="0 0 200 269"><path fill="#8B0029" d="M199.993 145.518V0H.001v145.591c-.018 2.128-.143 53.285 36.286 83.612l-.081-.065c1.144 1.016 28.39 24.904 62.243 39.489l.667.283h1.824l.692-.332c32.591-15.114 62.306-39.104 62.61-39.341 36.47-30.371 35.796-81.549 35.751-83.719z"/><path fill="#D6CABC" d="M7.354 7.417v1.418h185.745V7.417H7.354zM7.354 47.182v1.422h185.745v-1.422H7.354zM6.931 70.923v1.418h185.753v-1.418H6.931zM41.972 41.103c-.992-.756-1.935-1.465-3.969-3.599 0 0-8.585-9.499-9.89-10.946.332-.408 9.984-12.207 9.984-12.213l.57-.598h-4.869L22.956 27.16V13.747h-4.908v28.33h4.908v-14.51l11.323 12.605c.933 1.253 2.626 1.904 4.989 1.904h4.047l-.968-.69c.012.006-.375-.283-.375-.283zM65.2 12.91c-4.316-.025-8.032 1.428-11.042 4.315-3.004 2.887-4.536 6.434-4.536 10.537 0 4.321 1.509 7.955 4.493 10.789 2.898 2.781 6.486 4.187 10.679 4.187 4.188 0 7.826-1.455 10.805-4.34 2.969-2.879 4.493-6.529 4.493-10.848 0-3.953-1.404-7.383-4.167-10.188-2.862-2.928-6.481-4.424-10.725-4.452m-.205 26.132c-2.948 0-5.447-1.234-7.382-3.676-1.82-2.262-2.747-4.947-2.747-7.983 0-3.13.926-5.747 2.751-7.759 1.825-1.998 4.275-3.013 7.295-3.013 2.961 0 5.42 1.221 7.318 3.633 1.736 2.231 2.619 4.978 2.619 8.151 0 3.083-.892 5.651-2.657 7.632-1.821 1.995-4.252 3.015-7.197 3.015zM133.729 28.53l9.107.005v-3.711l-9.107.004v-7.343c1.988-.047 11.143-.003 11.248-.003l.311.003v-3.809l-16.506-.011v.315l.021 28.096h18.2l.045-3.992-13.318.011-.001-9.565zM173.342 13.666h-4.55l-11.583 28.411h4.384s3.755-10.027 3.896-10.423h10.235c.142.391 3.972 10.423 3.972 10.423h5.438l-11.586-28.411h-.206m.799 14.229h-7.279c.28-.734 3.188-8.09 3.679-9.33.474 1.244 3.323 8.603 3.6 9.33zM111.693 35.659s-4.709-5.885-5.898-7.373c.975-.356 2.68-1.118 3.983-2.481 1.425-1.481 2.144-3.176 2.144-5.026 0-2.08-.788-3.792-2.351-5.09-1.625-1.338-3.869-2.017-6.69-2.017h-9.432v28.405h5.063v-.437c-.133-.952-.14-2.415-.14-5.789v-18.64c4.633-.045 6.476.541 7.195 1.049.968.691 1.445 1.685 1.436 3.048-.018 3.135-2.317 5.009-7.025 5.718l-.536.075 9.957 12.746c1.179 1.485 2.904 2.229 5.134 2.229h4.056l-.836-.573c-2.021-1.382-4.238-3.511-6.06-5.844zM93.845 60.568h4.346v-1.77l-4.346.004v-3.501c.945-.024 5.308 0 5.361 0h.142v-1.813l-7.857-.007v.151l.011 13.391h8.644l.053-1.907-6.353.008-.001-4.556zM29.176 53.495h-1.63l.012 8.343c0 2.49-.575 3.845-3.638 3.845h-.356c-2.035 0-3.063-1.301-3.063-3.845l.012-8.343h-2.351l-.009 8.35c0 1.014.04 1.705.125 2.127.142.757.455 1.418.946 1.95.884.96 2.149 1.456 3.76 1.456h1.52c1.605 0 2.88-.496 3.758-1.456.484-.532.797-1.193.942-1.953.086-.419.121-1.11.121-2.124l-.004-8.35h-.145zM49.575 53.495l-.003.147s-.016 9.004-.016 9.797c-.504-.637-7.835-9.944-7.835-9.944h-2.034v13.556h1.77l.007-10.137c.5.645 7.943 10.132 7.943 10.132l1.954.005V53.495h-1.786zM61.352 53.495v13.556h2.329l.008-13.556h-2.337zM146.131 67.051h2.334V53.495h-2.351v10.582l.017 2.974M81.748 53.495s-3.618 9.902-3.879 10.625c-.257-.727-3.81-10.625-3.81-10.625h-2.664l5.051 13.567 2.122-.003 5.236-13.564h-2.056zM134.662 60.183c-.01-.01-1.822-.9-1.822-.9l-1.556-.762c-1.141-.599-1.715-1.25-1.715-1.938 0-.577.263-.999.798-1.292.405-.239.996-.354 1.716-.329 1.186.034 2.399.388 3.032.879l.235.188v-2.405l-.098-.031a10.32 10.32 0 0 0-3.052-.451c-1.401 0-2.586.277-3.52.825-1.124.64-1.691 1.594-1.691 2.826 0 1.253.63 2.3 1.874 3.101.007.008.667.332.667.332l2.704 1.326c1.138.601 1.715 1.296 1.715 2.082 0 .591-.301 1.065-.934 1.437a3.326 3.326 0 0 1-1.794.507c-1.459-.014-2.832-.376-4.07-1.093l-.263-.159.349 2.371.09.028c1.085.405 2.33.616 3.658.616 1.648 0 3.074-.43 4.097-1.241.968-.778 1.448-1.818 1.448-3.075.002-1.104-.627-2.051-1.868-2.842zM157.347 53.444v.146l-.007 1.628s3.5 0 3.783.013v11.787h2.331l.007-11.787h3.866v-1.787h-9.98zM182.601 53.461s-3.458 5.338-3.692 5.704c-.239-.366-3.638-5.721-3.638-5.721h-2.698s4.827 7.593 4.882 7.668l-.017 5.906h2.344l.01-5.903 5.08-7.654h-2.271zM117.757 63.964s-2.24-2.805-2.814-3.518c.477-.171 1.286-.53 1.902-1.175.677-.712 1.02-1.521 1.02-2.401 0-.991-.37-1.803-1.124-2.428-.775-.639-1.847-.954-3.181-.954h-4.492v13.535h2.406v-.215c-.062-.452-.062-1.11-.062-2.754v-8.887c2.199-.02 3.08.259 3.423.505.467.327.695.801.688 1.448-.007 1.497-1.104 2.393-3.347 2.729l-.252.034 4.741 6.071c.56.703 1.376 1.067 2.434 1.067h1.95l-.411-.283c-.962-.649-2.012-1.67-2.881-2.774zM193.029 145.591v.314c0 4.295-.767 50.949-33.207 77.953-.263.206-28.56 23.048-59.854 37.825-32.251-14.192-58.892-37.521-59.161-37.757l-.078-.068C7.341 196.065 6.956 147.455 6.956 145.671V79.895H193.03l-.001 65.696z"/><path fill="#8B0029" d="M84.34 238.39h2.555c.354 0 .223-.321.223-.321-1.041-4.591-.498-8.194-.298-9.263 0 0 .1-.315-.266-.315H84.03c-.344 0-.214.264-.214.264.856 3.53.524 8.001.301 9.294 0-.001-.158.341.223.341zM93.807 228.204c-4.068.394-3.817 5.162-3.817 5.162.249 4.315 4.723 5.131 4.723 5.131-1.222 3.309-4.49 4.295-4.49 4.295-.769.296-.206.518-.206.518.977.325 2.398-.249 2.398-.249 5.974-2.676 6.129-8.938 6.129-8.938.127-6.387-4.737-5.919-4.737-5.919m1.454 8.779c-1.947.059-2.415-2.974-2.415-2.974-.5-3.327.793-3.518.793-3.518 1.367-.428 1.965 2.404 1.965 2.404.665 3.264-.343 4.088-.343 4.088zM108.879 232.066s-.536-3.955-4.25-3.915c0 0-3.669-.093-3.836 4.994 0 0-.14 5.369 4.497 5.137 0 0 4.543-.283 3.589-6.216m-3.527 4.515c-1.756.643-1.95-2.942-1.95-2.942-.187-3.427 1.21-3.765 1.21-3.765 1.411-.354 1.805 2.168 1.805 2.168.636 3.896-1.065 4.539-1.065 4.539zM109.971 239.655c3.921.775 4.958-2.002 4.958-2.002 1.251-3.941-3.672-4.132-3.672-4.132l.792-5.072s4.941.234 6.262-.421c0 0 .308-.209.135.535 0 0-.273 1.683-1.885 1.809l-2.427.203-.231 1.429s4.201-.091 4.122 4.447c0 0-.156 3.506-4.257 4.37 0 0-1.922.421-4.135-.48 0 0-.338-.163-.159-.433 0 0 .158-.322.497-.253zM95.51 144.647c.313-.376.712-.111 1.047 0 .316.089.325.706.508 1.023.097.222.71.843.769 1.033.497 2.282 0 5.273-1.026 7.006-.291.532-.763.812-1.095.83-.431.037-.57-.595-.723-.83-.657-.917-.161-3.103 0-4.125.171-1.314-.856-3.431-.201-4.388.001.001.709-.549.721-.549zM64.478 147.055c.555-.166 1.352.11 1.689 0l.745-.305c.861-.554 1.717-.396 2.592-.305.437.049 1.73.609 2.161.625.691.08 3.953.434 7.427.932-.031-.012 1.851-.246 1.376-.769.298.339-.052-.283-.763-.529l-.242-.259c.028-.027-.601-.525.519-.898-.425.124.735-.171.961-.415.45-.484-.21-1.002-.21-1.002-1.641-.554-3.485.499-5.951.24-1.215-.099-2.937-.794-4.648-.514-1.864.332-4.604 1.382-5.909 2.398-.001.001-.622 1.087.253.801zM85.243 133.61c1.678-.1 1.753 1.638 1.792 1.46-.191 1.24-3.239 1.351-3.961 2.319-2.131 2.773-1.247 5.425-6.279 5.708 0 0-1.012-.234-.621-.649.316-.335 1.536-.657 1.985-.933.652-.374.598-1.423 1.027-2.068.09-.16.657-.36.797-.498 1.411-1.911 1.571-3.845 4.065-4.979.1-.062 1.009-.323 1.195-.36z"/><path fill="#8B0029" d="M101.362 126.145c.574-.324 1.141 0 1.518.34.218.155 2.064 4.57 2.147 5.01.235 1.605.416 5.307-.021 6.494-.619 1.655-2.151 2.932-1.819 5.868.18 1.729.941 3.072 1.67 4.573.086.249.844 1.716.882 2.023.283 1.58-.581 3.619-.712 4.898-.387 3.186.889 6.079.377 9.118-.215 1.307-.636 1.968-1.353 2.776l-.574.487c-.159.318-.443.423-.733.645l-.35.357c-.539.126-.591.443-.812.468-1.364.304-1.642-.495-1.556-.308-1.382-3.896.934-8.447-.25-12.209-.273-.864-1.293-1.726-1.43-2.648-.472-3.37 2.683-5.147 2.638-7.417 0-1.614-2.126-3.717-2.607-5.308-.602-1.866-1-5.444-.18-7.771.192-.571.923-1.525 1.125-2.278.387-1.455.985-2.653 1.193-3.622.072-.293.258-.719.414-1.002.056-.092.336-.439.433-.494zM141.595 118.1c2.275-.266 3.298.633 2.233 2.574l-.446.422c-.183.066-.788.859-.913.97-1.104.813-2.14 1.313-2.978 2.341-.29.344-.525 1.223-.881 1.523-.57.41-2.749 1.37-3.302 1.47-2.759.441-6.507-2.31-6.919-3.901-.356-1.362 0-2.688.592-3 .929-.472 3.381-.228 4.218-.313 2.126-.158 3.464-.041 5.09-.604.989-.322 2.116-1.346 3.306-1.482zM129.846 117.18s1.293.54 2.451.261c.819-.205 2.337-.9 3.102-1.037.463-.107 1.113.125 1.563 0 1.259-.383 3.576-2.845.802-3.108-1.01-.095-4.01 1.038-4.948 1.299-.937.239-1.521.394-2.299.802-.208.122-1.282 1.003-1.155.852-.001-.002-.709.592.484.931zM110.013 121.838c-.809-.112-.809-1.473-2.849-1.033-1.424.299-1.812 2.391-3.886 2.335l-1.03-.503c-.899-.216-1.548.097-2.337-.291-3.65-1.706 2.828-10.462 4.924-10.345.11 0 1.189.394 1.321.511.649.566.649 3.01 1.262 3.892.466.622 1.2.571 1.829 1.037.661.499 1.908 2.223 2.061 3.121-.002 0 .337 1.496-1.295 1.276zM143.717 192.584c.041-.053.041-.053 0 0zM143.717 192.584l-.01.01c.01 0 .01 0 .01-.01zM172.785 115.591c0 .014.003.031.003.051 0 .003.014.007.014.013-.013-.03-.013-.048-.017-.064zM140.086 113.125c.021-.047.045-.094.063-.132-.069.137-.08.16-.063.132zM124.331 157.351c-.003 0-.034 0-.045-.01.045.031.055.031.045.01zM94.306 122.484c-1.414.791-4.497 2.003-5.141 3.374-.359.719-.359 1.343-.648 2.205-.04.093-.421.246-.54.508-1.504 0-2.83-.095-4.133.254-1.02.29-2.489 1.37-3.624 1.567-2.3.397-4.059-.627-6.216-.264-.961.169-1.578 1.165-2.367 1.564-.675.323-.949.323-1.476.804l-.477.552a7.789 7.789 0 0 1-.462.979c-.468.705-.657 1.423-.769 2.182-.114.737-.542 2.505-.927 3.237-.187.353-1.16 1.147-1.3 1.473-.074.222-.293.439 0 .771-.337-.366-.269.359 1.598.459 2.052.042 6.521-1.326 6.521-1.326l2.145-1.156c.415-.32 2.079-1.58 2.446-2.018 1.563-1.938 5.743-9.001 8.995-7.153l.586.418c.776 1.306-.204 5.032-.786 5.886l-.735.877c-.581.188-.987 1.689-1.073 2.393-.137 1.113.186 2.122.269 2.744.168 1.341.308 3.035-.521 4.692-.179.32-.648.896-.523 1.794.157 1.017 1.599 1.761 1.807 2.604.125.422.496.488 0 1.298-.275.435-1.462 1.175-1.807 1.553-.469.477-.059 1.224.25 1.517.896.809 1.637.913 2.333 1.843.992 1.272.935 2.379 3.119 2.591 1.714.158 4.136.256 3.113-2.082l-.515-.872c-.61-1.523-1.677-2.879-1.82-4.549-.201-2.124 1.507-3.202.789-4.917-.575-1.317-3.161-1.169-3.376-2.881-.109-.954.861-2.978 1.044-3.889.199-1.245-.133-2.034.27-3.103.258-.763 1.392-1.621 1.516-2.574.243-1.711-1.078-2.79-.504-4.662.285-.965 1.794-.855 2.349-1.567.718-.96.323-2.285.761-3.633.043-.156.414-.962.489-1.102-.043-.059.297-1.735.297-1.735-.225-1.051-.879-.621-.957-.656m-16.41 13.675c-1.45.332-1.58-2.762-5.072-1.556-.18.068-1.16.967-1.243 1.109-.406.923-.187 3.278-.649 3.503 0 0-1.355.335-1.09-1.38.418-2.725.942-3.232 2.318-4.38.187-.15.703-.537.968-.596 1.646-.373 4.682.254 5.228 1.09.469.694-.523 2.23-.46 2.21z"/><path fill="#8B0029" d="M172.789 115.642c-.242-1.265-3.682-1.175-5.068-2.864-.52-.676-.135-1.047 0-1.552.394-1.476 3.537-.601 4.273-1.915.298-.551.398-2.175.2-2.397-1.967-2.419-6.126-1.267-9.065-2.44-1.411-.581-3.174-1.756-4.661-2.315-1.87-.715-3.313-.819-5.179-1.56-.426-.184-1.255-.793-1.701-.975-2.079-.834-3.728-1.001-5.795-1.885-.249-.09-.878-.449-1.151-.563-.827-.354-1.09-.405-1.971-.729-3.201-1.16-7.282-2.186-11.925-1.891-2.033.108-4.374-.268-7.51.625-1.085.273-2.6 1.211-3.617 1.531-.719.215-1.334.339-1.985.622-.901.367-1.701.894-2.938 1.187-3.561.797-8.312-.077-11.922.523-3.129.503-4.938 2.478-7.511 3.368-.786.259-1.11.176-1.884.459-.45.154-1.516.436-1.875.64-1.074.552-1.774.719-2.984 1.227-.607.273-1.329.829-1.916 1.101-.871.432-.921.552-1.641 1.076l-.586.425s-1.266 1.106-1.419 1.302c-.503.527-.987 1.253-1.421 1.802-1.317 1.535-3.295 3.46-4.933 4.648-.596.432-1.015.34-1.539.798-.62.47-1.165.973-1.755 1.422-1.358.974-2.715 1.618-4.211 2.44l-.961.64c-1.267.833-1.215 1.168-2.529 1.997-.855.586-1.229 1.463-2.019 2.135-.52.404-1.117 1.669-1.466 2.209-1.628 2.385-2.239 5.896-3.399 8.851-.348.84-3.176 4.917-3.879 5.176l-.52.495c-.403.339-.403.439-.77.799-.836.744-1.68 1.169-2.325 2.079-.527.704-.836 1.534-1.317 2.315-.741 1.218-1.96 2.565-2.577 3.894-.251.49-.431.981-.607 1.452-.065.068-.112.152-.131.152-.316.404-.864 2.074-.864 2.074-.574 1.334-1.942 2.085-3.751 4.664-2.113.151-9.399-1.697-14.354-4.046 1.109 1.235 6.669 4.976 13.182 5.688-.432.637-.469 1.286-1.25 1.491-2.606.643-7.131-.783-13.219-2.909.353.85 5.712 3.994 13.625 4.475-1.172 1.375-12.042 1.033-20.545-1.282-.323.889 10.629 3.325 16.641 3.242-1.03.528-3.733 1.141-5.474 1.768-2.737-.305-6.564-.781-7.307-1.062.173.554 2.883 1.292 5.128 1.812-2.157.771-5.354 1.218-6.596 1.479.906.228 4.373-.325 8.017-1.203 3.193.612 8.08 1.249 10.768 1.127-.675.335-3.203 1.964-5.2 3.133-5.106.48-10.663.906-11.857 1.058.67.102 5.148.173 9.923.053-2.915 1.707-6.025 3.487-7.521 4.17 2.215-.568 6.168-2.079 10.209-4.25 4.009-.142 7.767-.471 9.332-1.03-.536 1.169-3.776 6.76-6.793 8.057 1.302-.215 5.488-1.393 8.019-7.731.899.388 1.922.615 3.115.688.667 1.007 2.246 3.585 5.238 3.735.61 1.735 6.158 10.784 13.953 7.258-2.251-1.225-3.612-2.494-4.722-6.107 3.457-.215 12.613 4.807 15.37 15.659-2.168-.729-4.88-1.983-5.168-3.072-.595 2.513-.985 5.75 4.567 11.344.106 1.196.086 2.631.341 3.983.917.957 1.976 1.67 2.957 2.503.069 1.574-.152 3.737 3.985 4.948 1.407 1.162 5.923 2.405 6.583 3.18 1.348.434 3.349.517 4.806.434 0 0 1.962-.332 2.486-1.083.979-.055 2.308-.086 8.31-6.479 1.259-1.504 0-9.771.301-11.777.587-1.458.851-2.803 1.653-4.598 0 0 .812-1.771 2.345-2.482.103-.049.193-.049.321-.083 3.457-.781 7.956 2.455 10.085 3.361.775.317 1.183.145 1.805.525.308.158.736.864 1.05 1.044.761.425 1.494.308 2.345.76 1.238.691 3.755 4.329 5.947 3.908.678-.163 1.217-1.719 1.805-2.095 1.023-.627 2.454-.568 3.367-1.279 1.044-.824.615-1.747.775-2.863 0-.052.483-.574.529-.796.508-.049 1.635-.003 2.341-.228.09-.034.387-.381.508-.513.446-.466.121-.961 0-1.342-.156-.415-1.214-.904-1.545-1.265-.778-.774-2.109-1.902-2.607-2.843-.235-.478.063-.576-.266-1.064-.342-.539-1.248-1.099-1.525-1.791-1-2.223-.602-7.183-1.041-7.873-.411-.667-.919-.58-1.324-1.204-.861-1.365.201-5.764.276-7.507.077-1.396-1.293-.525-1.293-.525-1.134 2.795-1.013 4.033-1.293 8.032-.042.354-.522 2.49-.522 2.866-.018 1.398.802 3.767.249 5.437-.183.547-1.307 1.597-2.845 1.556-.581 0-3.482-.753-4.139-1.033-.127-.066-.743-.769-.792-.793-1.438-1.141-1.743-.068-1.805.502-.045.602.197.716.315 1.048.052.332.636 1.577.577 1.677-.021.125-.525 1.487-3.219-.1-2.03-1.232-4.035-4.612-4.142-5.193-.28-1.304.12-2.282.369-2.729 1.013-.916 2.22.355 3.23.902.256.135.878.574 1.189.633.595.1 1.55-.11 1.681-.11 3.935-.231 8.008 1.196 8.706-1.446.436-1.656-1.196-2.549-1.483-3.232-.37-.845-.18-.892-.391-1.822-.035-.072-.304-.674-.367-.747-.401-.692-.111-1.293-.512-2.067-.411-.843-1.576-1.355-2.061-2.078-.67-.957-.67-2.153-1.57-2.855-1.327-1.085-6.635-2.666-7.253-3.901-1.01-1.956.234-5.557-.256-8.014-.266-1.442-.733-2.227-1.614-3.115-.339-.346-.501-.864-.377-1.332.228-.86.685-.625.947-2.559.166-1.058-.097-2.254 0-3.36.007-.18.512-1.874.543-2.074.235-2.891-.142-5.916-.781-8.009-.305-1.021-1.249-1.901-1.563-2.868-.272-.811.056-1.277-.272-2.083-.256-.712-1.162-1.208-1.522-1.791-.705-1.03-.497-2.784-1.573-3.379-.788-.438-1.067.173-1.02 0-.263.949-.208 1.875.255 3.103.188.53 1.159 1.297 1.314 1.821.2.957-.155 2.117 0 3.113l.498 1.044c.397 2.599-1.017 6.048-2.068 7.496-.74.961-2.966 2.192-3.102 3.627-.114.899.252.928.481 1.304.334.477 1.403 1.097 1.569 1.549.118.339.249.271.384.605l.134.705c.18 1.812-2.185 2.224-1.037 4.397.325.627 1.438.627 2.061 1.024 1.176.747 3.413 2.845 3.624 4.644.097.791-.003 4.961-.235 5.459-.54 1.155-3.451 1.604-3.119 3.89.367 2.493 6.943 1.787 8.79 3.099.878.612 1.058 1.945 1.324 3.135.149.644-.495.861-.781 1.008-.695.404-1.193.093-2.075.28-2.136.435-5.553 1.394-6.448 3.115-1.127 1.978.2 4.699-.277 6.97-.47 2.065-2.019 4.571-3.132 6.241-.688 1.01-1.559 2.012-1.885 3.437-.764 3.057-.232 6.666-.453 10.255l-.042.028s.132 1.86-1.12 3.216c-1.425 1.563-6.355 6.175-9.853 6.175-1.298-.042-1.829-.47-3.243-1.494-.895-.076-2.946-.574-4.13-1.808-.372-.661-4.236-4.577-1.808-5.695 2.285-1.05 5.981 1.238 7.693 2.346.695 0 5.693.249 11.002-6.709-.249-3.645-.55-8.313-.947-9.162-.553-1.784-3.568-4.941-4.214-6.829-.399-1.535-1.118-4.543-.653-6.628-.202-2.327-1.672-2.839-2.282-4.724-.167-.477-.366-.847-.472-.993-.183-.68-.31-1.289-.728-1.91-.921-1.411-1.821-1.716-2.665-3.093-.88-1.431-.723-3.215-2.078-4.148-.747-.498-1.748-.546-2.583-1.03-.607-.363-1.373-1.24-2.074-1.553-.818-.366-1.044-.471-1.873-.837-.406-.197-1.141-.525-1.497-.711-.363-.212-.73-.028-1.036-.277-1-.851-.28-1.614-.776-3.087-.048-.185-.438-.19-.529-.522-.414-.111-1.141-.771-1.703-.378-.773.571-.993.405-1.473 1.592-.278.781-.806 3.079-1.333 3.641-.464.556-1.055 1.327-1.79 1.843-.688.359-1.29.317-1.29.317l-1.938.283-.964 1.484s-1.055-.142-1.613-.142c-.158.359-1.436 1.341-1.837 1.687-1.642.962-2.649.284-2.758-.068-.083-.308-.601-.959.507-1.618 3.798-1.066 8.455-6.15 8.846-7.251-.484.74-8.345 5.083-9.799 5.667 1.563-3.707 11.194-9.132 11.78-9.775-2.465.375-10.67 5.332-12.096 7.524-1.364 2.209-2.97 1.594-4.481 1.528-1.47-.049-1.349 1.532-1.416 2.5-.019.947-.75 2.87-.131 3.215 1.007.864 3.656-2.648 4.5-.76.462 2.109-4.989 2.012-4.942 3.717-.261.898 5.033 1.206 6.002 2.163-1.696 1.242-5.862 1.643-7.1 1.706-.773.062-1.47.031-1.867-.031-.688-.122-1.591-.75-2.384-2.044-1.507-2.737 1.039-4.622 1.079-5.324.062-.733-.286-.343-.332-1.494-.043-1.147 1.247-1.341 1.575-1.583.367-.256-.095-.575-.008-1.688.672-2.52 4.781-5.425 3.73-6.233-.956-.505-2.949 1.694-3.722 2.693-2.826 3.645-6.12 2.5-7.236 2.546-2.494.134-2.056-2.591-.313-2.4 2.009-.415 1.86-3.192 3.287-2.915.46 2.032-1.79 2.317-.738 2.77 1.437.566 1.573-1.31 2.027-2.1.429-.801 2.45-2.53 2.223-2.965-.586-.205-2.076.857-2.752 1.383-1.641-4.098 2.493-7.213 2.697-8.428 1.356-2.139 8.939-4.878 9.08-8.128l.208-.179s.142-.09.372.289h.015c.051.197.086.409.146.627.015.266-.012.505-.012.505l.034-.316c.059.513.037.952.059.845v.492c.071.289.453.44.516.469.157-.028.576-.158.966-.607.062-.066.503-.488.503-.589.728-.532.859-.609 1.373-1.335 1.3-1.895-1.208-4.673-.513-7.231.477-1.702 2.063-3.711 2.063-3.711.429-.97-.25-.962-.25-.962-1-.179-1.696.891-1.547.75-1.281 1.205-1.665 1.791-2.595 3.4 0 0-.782.706-1.011-.264-.45-1.604 1.37-4.758 1.941-5.161 1.063-.73 2.146-1.047 3.482-1.59.672-.282 1.668-1.361 2.337-1.54.328-.112.686-.184 1.027 0 0 0 .505.368.27 1.54 0 0-.512 1.402-.332 1.919.109.348.063.68.853.68 1.858.034 6.016-.398 7.234-1.051.278-.109.548-.52.797-.757.384-.391.286-.971 0-1.029l-.797-.262c.61-.09-3.507-.12-2.844-.241-.723.121.974-1.92.775-2.887-.083-.459-.892-.649-1.035-1.018-.083-.231-.521-.574 0-.781l.596-.254c.201-.145.415-.388.697-.518 1.3-.604 3.641-.308 4.664 0 .111.056 1.782.518 2.337 2.077.146.438.261.921.515 1.305.781 1.069 3.064 1.455 4.403.183.266-.246.591-.852.79-1.208 1.328-3.055-.641-5.132-3.129-5.978-1.001-.358-2.626-.456-3.881-.781-.887-.249-.355-.993-.101-1.216l.379-.336c.492-.729 2.031-1.378 2.593-1.551 1.373-.52 2.721-1.035 4.659-.246.289.098 1.046.692 1.266.754 1.473.368 2.028.477 3.392-.234.546-.266.465-.337.515-.503.484-1.389-.477-2.31-.449-2.161-.289-1.869 5.042.438 5.872-.739.781-1.064.273-3.099 1.304-3.875.117-.067.726-.497.775-.513.992-.209 1.86.203 2.648.513l.844.401c1.681.692 3.136 1.066 4.045 2.443.57.901.463 2.207 1.02 3.125.239.388.792.64 1.076 1.035.238.283.698.474 1.009.649.478.301.664.422 1.283.62.46.186 1.125.877 1.563 1.057 1.58.643 3.475.553 5.183.511 1.016-.039 1.618.554 2.579.266.495-.168.354-1.044.045-1.415-.619-.784-1.089-.597-2.113-1.18-.4-.246-.906-1.043-1.299-1.281-1.183-.77-2.897-.879-3.613-2.081-.097-.189-.232-.536-.252-.756l-.291-.55c-1.432-2.905-1.888-4.627-.512-5.174.857-.324 2.732-.141 3.651-.517.208-.112.602-.694.764-.781 2.057-.977 5.923-2.117 8.042-1.031.64.301 0 1.949.238 2.586.135.281.609.764 1.152.923 4.446 1.196 8.89.999 12.153 2.541 1.946.918 3.437 2.354 5.19 3.872 1.504 1.339-.281 2.853 1.269 3.306-1.058.14-1.957.257-2.14-.295-.052-.137-.37-.62-.519-.762-1.166-1.105-2.521-2.813-4.132-3.362-.837-.307-1.204-.044-2.089-.275l-1.044-.352c-1.123-.315-1.207-.207-2.307-.433-.491-.098-1.604-.698-2.088-.751-2.199-.328-3.434.556-5.446 0-.926-.273-2.122-1.746-2.873-2.14-.93-.529-1.788-.713-2.832-1.049-.421-.113-.636-.113-.951.048-.574.337-.384.848-.087 1.272.173.228.318.618.519.742.732.527 2.192.527 2.593 1.294 1.145 2.263-.535 3.05-.778 3.724-.121.409-.438.731 0 1.281.243.29.758.652 1.051.762 1.047.456 1.877.281 2.856.789.695.368 1.428 1.626 2.327 1.825 2.075.445 2.569-1.086 3.62-1.315 1.5-.332 2.427.459 4.149 0 .57-.153.888-.83 1.289-1.018.993-.527 1.978-.601 2.597-.281 0 0 .667.322-.266.789-.536.295-.989.295-1.545.575-.376.203-.708.73-.771.816-.176.358-.297.902-.286.938.162.293.386.453.529.531 1.805.623 3.647-.546 5.193-.781 1.148-.183 4.357 0 5.28.703 0 0 .854.177.301 1.731-.343.933-1.819 1.614-2.375 2.405-.329.448-.688 1.299-1.024 1.737-.546.706-.64.684-1.193 1.336l-.38.552c-.225.664-2.863 2.902-3.361 3.652-.297.444-.435.915-.75 1.395-.474.676-.82.79-1.062 1.2-.761 1.094-2.248 3.312-3.475 3.873-.55.229-1.321-.024-2.085-.177-.522-.142-1.086-1.098-1.538-1.306-1.813-.828-3.828-.594-5.426-1.556-.798-.476-1.535-1.875-2.102-2.59-.377-.49-.719-1.348-1.293-1.574-.927-.32-3.177-.024-3.617.781-.854 1.628 1.376 5.814 1.563 7.534.132 1.46-.54 2.124 0 3.352.249.625 1.221.788 1.542 1.299 1.404 2.209.18 5.332.512 8.284.131.92.678 2.061.518 3.386-.221 2.067-2.88 3.848-1.805 6.987.038.132.543.495.578.532.412.2 1.061.117 1.5-.01.861-.301 1.698-2.029 2.604-2.586.09-.107.387-.253.547-.253.096-.181.342-.193.483-.26.381-.287.533-.297.761-.778.366-.84.242-1.673.519-2.869.27-.988 1.187-2.749 1.304-3.891.315-3.17-1.981-9.37-.332-10.394.63-.391 1.256-1.141 2.345-1.306.484-.115 2.046.366 2.721.349-.011.018-.018.024-.018.024-.843 1.984 2.265 7.168 2.02 10.026-.605 6.968-5.155 10.815-9.083 14.532-.449.443-.069.944.27 1.293.774.737 2.665.411 3.647.257 1.421-.291 2.057-.935 3.104-1.291.384-.154.854.088 1.283 0 1.073-.293 1.985-1.744 2.594-2.623 0 0 1.269-1.362 1.536.442l.027.1c0 1.685-.294 3.526 0 5.169.308 1.946 3.855 7.786 5.698 8.05 4.315.632-.1-4.8-.277-5.187-.705-1.643-1.389-4.57-1.289-6.732.021-.791.681-2.389.771-3.131.042-.371-.149-1.229 0-1.528.339-.692 2.625-.917 3.119-1.826.132-.259-.062-.729 0-1.024.107-.625.561-1.78 1.044-2.319.309-.387.754-.605 1.293 0 .442.498.561 1.655 1.304 2.492l.636.698c.764.495 2.002-.161 1.677-.086.802-.222.709-1.037 1.044-1.32.056-.046.505-.246.505-.246 1.874-1.925-2.282-3.665-2.331-5.452-.042-1.984.443-4.28-.242-6.473-.172-.547-1.189-1.32-1.307-1.809-.28-1.25.37-2.57.519-3.361.29-1.655-.277-4.204.27-4.933.303-.404.809-.697 1.804-.524.657.12 1.096 1.194 1.553 1.558 1.698 1.365 3.665 2.126 6.487 1.802.349-.007.64-.54.701-.687.18-.517.146-1.181-.186-1.635-1.017-1.367-4.965-2.408-5.177-3.091-.155-.508-.781-1.187-.093-1.528-.377.217 2.431-.081 3.444-.294 1.32-.29 1.418-1.601 2.33-2.06 1.29-.682 3.185-.086 3.907-1.294.429-.781.093-1.895.504-2.61.512-.915 2.051-1.097 2.843-1.826.239-.218.128-1.018.073-1.272m-104.144 60.59c-.509-.563-.08-1.666.859-2.131 1.73-.818 2.446.132 2.82.582 1.679 2.607 3.856 5.981 5.471 7.324-1.494.145-7.066-1.556-9.15-5.775m14.253 26.202c-.907 0-6.675-4.854-5.807-7.872 1.711 1.263 5.548 3.945 6.034 3.89.515.304.921 3.644-.227 3.982m6.704.018c-.753-.661-6.341-6.569-4.946-9.309 1.536 1.54 5.806 5.471 7.331 5.854.429 1.121.366 4.212-2.385 3.455m.602-22.554c.978 1.465 2.323 2.322 2.251 5.483-.093.771.156.926.804.87.586-.172.266-3.81 2.034-3.58 1.5.225.483 2.31 1.226 4.653.274.836 1.968 3.841 1.516 8.989-.043 1.331-2.571 3.063-4.013 2.047-1.184-.716-1.184-1.598-1.863-7.039-.289-3.21-4.204-4.314-5.864-5.781-1.665-1.224-.715-1.829-1.02-4.056-.958-3.227-4.716-4.733-3.458-6.88.391-.534.77-1.042 1.96-.59.067 1.597 3.879 2.834 6.427 5.884m-26.698-10.179c-.098.052-.114.062.035-.012-.004 0-.02.009-.035.012.386-.166 2.059-.955 2.5-1.116 1.77-.627 2.712.32 4.341-.585.383-.235.813-.86 1.169-1.152.304-.276.868-.245 1.231-.501.903-.608 2.583-2.541 3.743-2.749.667-.124.664.052 1.004.083 0 .066.497-.1.367.896-.309 1.914 4.197-.024 7.162.678 2.012.483 3.975 1.165 3.454 2.461.071-.139-.589.401-.746.498-1.387 1.002-2.466-.097-3.169-.197-1.21-.145-2.069.225-3.309.073 0-.018-1.488-.498-1.488-.498-.939-.049-2.294.442-3.014.498-1.362.104-2.019-.378-3.243-.249-.597.068-1.558.85-1.992 1.003-.399.151-.864.286-1.255.411-.27.065-.941.435-1.253.576-1.234.609-1.969.609-3.498 1.011l-.883.238c-1.899.252-1.712-1.047-1.121-1.379m-4.616 7.399c2.04-.478 2.642.046 3.618 2.368.723 1.372 2.243 3.191 2.826 4.056-2.351.271-6.091-2.939-7.139-4.692-.663-.862.351-1.546.695-1.732m-25.959-9.723c2.685-.75 5.057-1.525 6.049-2.098.36-.024.708-.024 1.067-.046.152.713.429 1.438.855 2.155.094.154.187.289.273.415-1.625.037-4.904-.171-8.244-.426m5.594 4.695a51.906 51.906 0 0 0 3.946-2.642c.57.671 1.196 1.294 1.891 1.885-.725.197-3.004.48-5.837.757z"/><path fill="#8B0029" d="M63.506 169.719c.016-.003.031-.012.035-.012-.149.073-.133.064-.035.012z"/></svg>