<svg width="47" height="40" xmlns="http://www.w3.org/2000/svg">
    <g fill="none" fill-rule="evenodd">
        <path d="M0 0h46.154v40H0z"/>
        <path fill="#03CCCC" d="M25.368 1.539 16.664 19.68l24.634 13.265 4.725-20.013z"/>
        <path fill="#000" d="M0 12.934v20.012h41.298l4.725-20.012z"/>
        <g fill="#FFF">
            <path d="M5.169 23.548c0-2.157 1.501-3.913 4.23-3.913 1.227 0 2.18.412 2.771.835v1.873h-.01c-.815-.54-1.597-1.006-2.698-1.006-1.459 0-2.326.91-2.326 2.2 0 1.26.824 2.159 2.316 2.159 1.1 0 1.915-.392 2.707-.984h.011v1.893c-.54.37-1.565.793-2.898.793-2.803 0-4.103-1.713-4.103-3.85M13.964 19.814H15.9v5.691h4.072l-.075 1.714h-5.933zM21.176 24.342v-4.527h1.945v4.4c0 1.11.804 1.46 1.714 1.46.91 0 1.724-.329 1.724-1.418v-4.442h1.935V24.3c0 2.294-1.565 3.12-3.67 3.12-2.115 0-3.648-.826-3.648-3.078M34.578 25.653c.709-.01.984-.243.984-.772 0-.508-.254-.761-.984-.761h-2.232v1.544l2.232-.01zm-.095-2.866c.666 0 .93-.201.93-.73 0-.486-.295-.688-.93-.688h-2.137v1.418h2.137zm-4.04-2.973h4.442c1.534 0 2.453.635 2.453 1.862 0 .825-.328 1.418-1.247 1.692.951.381 1.407.889 1.407 1.767 0 1.534-1.165 2.084-2.793 2.084h-4.263v-7.405z"/>
        </g>
    </g>
</svg>
