<?xml version="1.0" standalone="no"?>
<!DOCTYPE svg PUBLIC "-//W3C//DTD SVG 20010904//EN"
 "http://www.w3.org/TR/2001/REC-SVG-20010904/DTD/svg10.dtd">
<svg version="1.0" xmlns="http://www.w3.org/2000/svg"
 width="128.000000pt" height="128.000000pt" viewBox="0 0 128.000000 128.000000"
 preserveAspectRatio="xMidYMid meet">

<g transform="translate(0.000000,128.000000) scale(0.100000,-0.100000)"
fill="#000000" stroke="none">
<path d="M512 1156 c-231 -57 -402 -275 -402 -516 0 -291 239 -530 530 -530
292 0 530 238 530 530 0 85 -17 155 -58 239 -105 216 -361 334 -600 277z m70
-383 l58 -57 60 59 c55 54 62 58 87 49 16 -5 32 -21 37 -37 9 -25 5 -32 -49
-87 l-59 -60 59 -60 c54 -55 58 -62 49 -87 -5 -16 -21 -32 -37 -37 -25 -9 -32
-5 -87 49 l-60 59 -60 -59 c-55 -54 -62 -58 -87 -49 -16 5 -32 21 -37 37 -9
25 -5 32 49 87 l59 60 -57 58 c-62 62 -68 81 -37 112 31 31 50 25 112 -37z"/>
</g>
</svg>
